<svg width="101" height="76" viewBox="0 0 101 76" fill="none" xmlns="http://www.w3.org/2000/svg">
<g id="Group">
<path id="Vector" fill-rule="evenodd" clip-rule="evenodd" d="M59.4169 0.11214C70.6588 0.108232 81.9011 0.0740339 93.143 0.121422C99.8262 0.148781 101.711 2.38191 100.27 8.98212C96.0508 28.3118 91.7369 47.6219 87.365 66.9179C85.9824 73.0169 82.8059 75.5153 76.3899 75.5343C53.9057 75.6013 31.4214 75.6086 8.93774 75.5314C1.58859 75.5055 -0.344576 73.0164 1.23879 66.0517C5.53504 47.1368 9.85424 28.2278 14.2081 9.32606C15.8667 2.12298 18.3593 0.145361 25.6899 0.124354C36.9322 0.0925985 48.1746 0.116049 59.4169 0.11214Z" fill="#E0EAF5"/>
<path id="Vector_2" fill-rule="evenodd" clip-rule="evenodd" d="M42.4278 73.2866C31.1845 73.2827 19.9406 73.3345 8.69782 73.2607C2.99652 73.2236 1.95984 71.8781 3.24324 66.3019C7.5942 47.3904 12.0854 28.5107 16.3396 9.57772C17.4803 4.4998 19.9411 2.25544 25.3815 2.30576C47.8662 2.51437 70.3548 2.37269 92.841 2.39565C98.4802 2.40102 99.427 3.60724 98.1612 9.32661C94.0511 27.8946 89.9151 46.4573 85.7063 65.0034C84.1312 71.9441 82.3168 73.2685 75.0145 73.2847C64.1523 73.3076 53.2896 73.2905 42.4278 73.2866Z" fill="#2671BE"/>
<path id="Vector_3" fill-rule="evenodd" clip-rule="evenodd" d="M51.995 36.2247C51.2412 35.3404 50.4136 34.3223 49.5371 33.3491C44.5672 27.8286 39.6412 22.267 34.5828 16.8291C32.2681 14.3404 31.5304 11.9236 34.3102 9.4672C37.0573 7.03915 39.7565 7.2541 42.2764 10.0476C49.2943 17.8247 56.3039 25.6106 63.4381 33.2807C66.1016 36.1455 65.4812 38.0934 62.5475 40.2161C51.2871 48.3664 40.0902 56.6052 28.9055 64.8596C26.3914 66.7156 23.9946 67.1802 21.9638 64.439C19.7233 61.4154 21.7962 59.6166 24.1202 57.9243C32.4318 51.8703 40.7272 45.7938 48.987 39.6694C50.1375 38.8164 51.7893 38.3191 51.995 36.2247Z" fill="#FDFDFE"/>
<path id="Vector_4" fill-rule="evenodd" clip-rule="evenodd" d="M55.555 65.4728C52.528 65.4728 49.4966 65.5768 46.4764 65.4395C44.0669 65.3306 42.6169 63.9842 42.6472 61.4462C42.6765 59.0465 43.8861 57.2423 46.2932 57.1773C52.909 57 59.5346 57.0381 66.1529 57.1675C68.2561 57.2086 69.8087 58.5789 69.796 60.7705C69.7809 63.2846 68.4579 65.2324 65.7655 65.3946C62.3731 65.5998 58.9596 65.4454 55.5555 65.4454C55.555 65.4537 55.555 65.4635 55.555 65.4728Z" fill="#FCFDFD"/>
</g>
</svg>
