<svg width="79" height="101" viewBox="0 0 79 101" fill="none" xmlns="http://www.w3.org/2000/svg">
<g id="Group 22">
<path id="Vector" d="M35.3844 0.395813H51.7257V75.2938C43.3554 76.877 37.1934 77.5 30.5263 77.5C10.5675 77.4791 0.177979 68.5625 0.177979 51.4375C0.177979 34.9376 11.1984 24.2291 28.2759 24.2291C30.9259 24.2291 32.9447 24.4377 35.3844 25.0624V0.395813ZM35.957 38.5599C34.0431 37.9348 32.466 37.7266 30.4468 37.7266C22.1817 37.7266 17.4076 42.7681 17.4076 51.6034C17.4076 60.2057 21.9716 64.9555 30.3419 64.9555C32.1503 64.9555 33.6226 64.8537 35.957 64.5411V38.5599Z" fill="#2BA977"/>
<path id="Vector_2" d="M78.4486 26.2399V63.7403C78.4486 76.6547 77.4812 82.8651 74.6419 88.2195C71.9919 93.3672 68.5008 96.6132 61.2871 100.198L46.1235 93.0528C53.3373 89.7003 56.8283 86.7381 59.0579 82.2173C61.392 77.5945 62.1281 72.2401 62.1281 58.1568V26.2402H78.4486V26.2399ZM60.4813 0.395813H76.8227V17H60.4813V0.395813Z" fill="#2BA977"/>
</g>
</svg>
