<svg width="90" height="100" viewBox="0 0 90 100" fill="none" xmlns="http://www.w3.org/2000/svg">
<g id="Group 37">
<path id="Vector" d="M89.0821 29.1969C89.0814 27.532 88.7253 26.0608 88.0052 24.7985C87.2979 23.5566 86.2386 22.5159 84.8178 21.6932C73.0894 14.9305 61.3497 8.18852 49.6251 1.41897C46.4642 -0.405873 43.3995 -0.339001 40.262 1.51203C35.5938 4.2648 12.2215 17.6553 5.25683 21.6894C2.38859 23.3501 0.992902 25.8912 0.992213 29.1938C0.987732 42.7939 0.992213 56.394 0.987732 69.9942C0.987732 71.6225 1.32933 73.0654 2.01769 74.3088C2.72536 75.5879 3.79944 76.6572 5.25304 77.4986C12.218 81.5326 35.5934 94.9221 40.2607 97.6759C43.3995 99.528 46.4642 99.5942 49.6261 97.769C61.3511 90.9991 73.0915 84.2571 84.8216 77.4945C86.2752 76.6534 87.3493 75.5835 88.0569 74.3053C88.7443 73.0616 89.0866 71.6191 89.0866 69.9904C89.0866 69.9904 89.0866 42.7974 89.0821 29.1969Z" fill="#A179DC"/>
<path id="Vector_2" d="M45.1719 49.4615L2.0177 74.3088C2.72537 75.5879 3.79945 76.6572 5.25304 77.4986C12.218 81.5326 35.5934 94.9221 40.2607 97.6759C43.3995 99.528 46.4642 99.5942 49.6261 97.769C61.3511 90.9991 73.0915 84.2571 84.8216 77.4945C86.2752 76.6534 87.3493 75.5835 88.0569 74.3053L45.1719 49.4615Z" fill="#280068"/>
<path id="Vector_3" d="M89.0823 29.1969C89.0816 27.532 88.7256 26.0608 88.0055 24.7985L45.1721 49.4618L88.0572 74.3053C88.7445 73.0617 89.0861 71.6191 89.0868 69.9904C89.0868 69.9904 89.0868 42.7973 89.0823 29.1969Z" fill="#390091"/>
<g id="Group">
<path id="Vector_4" d="M70.5797 40.1728V44.8173H75.2241V40.1728H77.5464V44.8173H82.1909V47.1395H77.5464V51.7837H82.1909V54.1059H77.5464V58.7504H75.2241V54.1059H70.5797V58.7504H68.2574V54.1059H63.6133V51.7837H68.2574V47.1395H63.6133V44.8173H68.2574V40.1728H70.5797ZM75.2241 47.1392H70.5797V51.7837H75.2241V47.1392Z" fill="white"/>
<path id="Vector_5" d="M45.2667 16.8477C57.3808 16.8477 67.9572 23.4267 73.6223 33.2058L73.5672 33.1117L59.3139 41.3183C56.5059 36.5638 51.3582 33.355 45.4525 33.2889L45.2664 33.2878C36.2611 33.2878 28.9604 40.5886 28.9604 49.5938C28.9574 52.4322 29.6989 55.2217 31.1109 57.6839C33.9216 62.5907 39.2055 65.9002 45.2667 65.9002C51.3655 65.9002 56.6793 62.5487 59.4755 57.5895L59.4076 57.7084L73.6392 65.9529C68.0361 75.6493 57.6045 82.2079 45.6314 82.3386L45.2667 82.3406C33.1143 82.3406 22.508 75.721 16.857 65.8902C14.0983 61.0909 12.52 55.5271 12.52 49.5938C12.52 31.5088 27.1807 16.8474 45.2664 16.8474L45.2667 16.8477Z" fill="white"/>
</g>
</g>
</svg>
